<?xml version="1.0" standalone="no"?>
<!DOCTYPE svg PUBLIC "-//W3C//DTD SVG 20010904//EN"
 "http://www.w3.org/TR/2001/REC-SVG-20010904/DTD/svg10.dtd">
<svg version="1.0" xmlns="http://www.w3.org/2000/svg"
 width="80.000000pt" height="80.000000pt" viewBox="0 0 80.000000 80.000000"
 preserveAspectRatio="xMidYMid meet">
<metadata>
Created by potrace 1.11, written by Peter Selinger 2001-2013
</metadata>
<g transform="translate(0.000000,80.000000) scale(0.100000,-0.100000)"
fill="#000000" stroke="none">
<path d="M351 727 c-63 -30 -149 -124 -93 -102 52 20 89 15 65 -9 -9 -9 -15
-35 -15 -64 0 -13 -3 -21 -6 -18 -3 3 -11 1 -18 -4 -6 -6 -35 -13 -63 -17 -67
-8 -66 -26 5 -58 49 -22 54 -28 40 -38 -22 -16 -27 -69 -10 -103 10 -19 12
-30 5 -32 -13 -4 -14 -29 -2 -37 5 -3 17 2 26 11 15 16 16 14 9 -22 -4 -21
-11 -42 -17 -45 -13 -9 1 -31 14 -23 12 7 38 -24 39 -45 0 -14 12 -26 58 -58
19 -13 27 -14 47 -3 30 16 33 40 6 40 -25 0 -36 17 -22 34 6 7 9 15 6 18 -3 3
1 11 9 17 11 9 24 10 50 2 41 -11 43 -7 22 51 -14 40 -10 57 8 33 17 -23 41
-3 27 22 -5 11 -7 23 -4 27 4 4 8 12 9 19 1 7 5 24 9 40 5 18 3 27 -5 27 -6 0
-8 5 -5 10 3 6 -1 13 -9 16 -16 6 -23 26 -8 22 4 -2 28 8 55 21 53 26 63 51
18 51 -63 0 -99 25 -116 80 -1 3 -9 21 -17 40 -9 19 -22 50 -29 68 -17 47 -36
54 -88 29z"/>
</g>
</svg>
